<svg width="324" height="347" viewBox="0 0 324 347" fill="none" xmlns="http://www.w3.org/2000/svg">
<path fill-rule="evenodd" clip-rule="evenodd" d="M113.4 16.9268C113.4 7.57848 106.147 0 97.2 0C88.2531 0 81 7.57848 81 16.9268V25.492C72.9656 25.6233 65.8266 25.9236 59.5386 26.61C47.884 27.8826 37.3185 30.6291 27.9223 37.424C21.5115 42.0601 15.9541 47.8669 11.5171 54.5653C5.01392 64.3831 2.3853 75.4226 1.16755 87.6001C0.0980236 98.2944 0.00795432 111.345 0.000664322 126.951L1.54423e-05 129.548C1.54423e-05 130.14 1.54423e-05 130.735 1.54423e-05 131.334V229.707C-0.000470558 252.628 -0.000954974 271.528 1.92377 286.488C3.94472 302.193 8.35063 316.063 18.9796 327.169C29.6084 338.274 42.8832 342.878 57.914 344.989C72.2308 347.002 90.3197 347 112.256 347H211.742C233.679 347 251.769 347.002 266.087 344.989C281.117 342.878 294.391 338.274 305.02 327.169C315.649 316.063 320.055 302.193 322.077 286.488C324.002 271.528 324 252.628 324 229.707V131.334C324 130.817 324 130.301 324 129.789V126.951C323.992 111.345 323.903 98.2944 322.832 87.6001C321.615 75.4226 318.986 64.3831 312.483 54.5653C308.046 47.8669 302.488 42.0601 296.078 37.424C286.682 30.6291 276.116 27.8826 264.462 26.61C258.173 25.9236 251.035 25.6233 243 25.492V16.9268C243 7.57848 235.747 0 226.8 0C217.853 0 210.6 7.57848 210.6 16.9268V25.3902H113.4V16.9268ZM291.598 126.951C291.587 111.099 291.485 99.8866 290.609 91.1183C289.666 81.7017 287.976 77.054 285.841 73.8314C283.623 70.4823 280.845 67.5788 277.639 65.2607C274.554 63.0304 270.106 61.2643 261.094 60.2803C256.057 59.7305 250.177 59.4722 243 59.3509V67.7073C243 77.0557 235.747 84.6341 226.8 84.6341C217.853 84.6341 210.6 77.0557 210.6 67.7073V59.2439H113.4V67.7073C113.4 77.0557 106.147 84.6341 97.2 84.6341C88.2531 84.6341 81 77.0557 81 67.7073V59.3509C73.8228 59.4722 67.9428 59.7305 62.9058 60.2803C53.8935 61.2643 49.4455 63.0304 46.3612 65.2607C43.1558 67.5788 40.3771 70.4823 38.1586 73.8314C36.024 77.054 34.3338 81.7017 33.3921 91.1183C32.5152 99.8866 32.4131 111.099 32.4015 126.951H291.598ZM32.4 160.805V228.512C32.4 252.929 32.4345 269.538 34.0349 281.977C35.5728 293.928 38.2842 299.463 41.8898 303.231C45.4955 306.998 50.7932 309.832 62.2312 311.438C74.1353 313.111 90.0318 313.146 113.4 313.146H210.6C233.969 313.146 249.864 313.111 261.769 311.438C273.207 309.832 278.504 306.998 282.11 303.231C285.716 299.463 288.428 293.928 289.965 281.977C291.566 269.538 291.6 252.929 291.6 228.512V160.805H32.4Z" fill="#F9656A"/>
</svg>
