<svg width="210" height="94" viewBox="0 0 210 94" fill="none" xmlns="http://www.w3.org/2000/svg">
<path d="M118.593 29.8093C117.76 27.7217 117.248 26.0751 116.459 24.5746C115.816 23.3531 115.939 22.5869 117.305 22.4614C119.65 22.1111 122.026 22.0202 124.39 22.1902C129.475 22.8642 132.559 27.0636 132.959 32.164C133.324 36.8263 131.238 40.051 128.253 43.1374C127.272 44.0592 126.601 45.2628 126.333 46.5822C125.622 53.8201 125.071 61.076 124.603 68.3347C124.246 73.8712 124.132 79.4229 123.832 84.9636C123.664 88.0634 120.725 92.0487 117.754 92.6739C111.051 94.0844 104.319 94.8958 97.8562 91.4984C94.684 89.8308 92.563 87.9626 92.7473 83.6843C93.0919 75.6814 92.8338 67.6383 92.5084 59.6249C92.1728 51.3618 91.4008 43.1168 91.001 34.8551C90.9622 34.0538 92.041 32.9092 92.8875 32.4288C94.1193 31.9416 95.4097 31.6185 96.7258 31.4678C95.6608 26.7078 94.6324 22.0649 93.5786 17.4277C93.2492 15.9784 92.8366 14.5482 92.4883 13.1029C92.3652 12.7053 92.329 12.2859 92.382 11.8732C92.435 11.4604 92.5761 11.0638 92.7955 10.7102C93.015 10.3565 93.3079 10.0542 93.6543 9.8235C94.0007 9.59282 94.3926 9.43919 94.8034 9.373C96.5962 9.04875 97.3274 10.0449 97.6632 11.6723C98.9389 17.8563 100.274 24.0279 101.632 30.4166L105.009 29.937C104.928 25.7928 105.087 21.671 104.702 17.6005C104.267 12.996 103.353 8.43622 102.63 3.85966C102.284 1.66599 104.133 1.20588 105.446 0.62088C106.555 0.12666 108.436 -0.2957 109.09 0.27127C109.892 0.96642 109.96 2.71641 110.015 4.02427C110.134 6.83786 110.005 9.6609 110.043 12.4792C110.112 17.5257 110.309 22.5719 110.288 27.6175C110.28 29.4963 110.879 30.1444 112.741 29.9547C114.458 29.7798 116.201 29.8565 118.593 29.8093ZM123.653 52.1543L93.9859 52.7393C93.9416 53.4872 93.859 54.1337 93.8717 54.7782C94.0449 63.5556 94.3701 72.3327 94.3692 81.1099C94.3686 87.7811 99.1657 90.8698 104.545 91.3676C107.696 91.5658 110.857 91.5264 114.003 91.2498C116.259 91.1164 118.378 90.4393 119.599 88.4525L118.196 87.0082C118.679 86.6247 119.147 86.221 119.648 85.8627C120.278 85.4114 120.936 84.9972 121.581 84.567L121.186 83.9415L118.411 84.3223L117.974 83.6209C118.598 83.1399 119.182 82.3196 119.853 82.2425C121.733 82.0262 121.705 81.0229 121.366 79.6671L118.748 79.1654C118.973 77.0172 123.349 78.067 121.628 74.765L118.96 74.8176C118.732 72.1136 123.569 73.6735 122.35 70.342L119.109 70.0387L118.877 69.3014L122.677 67.6051L122.835 67.0305L118.869 65.9336C119.338 63.6358 124.23 66.0711 122.666 61.8859L119.844 61.9416C119.863 59.5055 124.082 61.1135 123.297 58.1125L119.84 57.5571C122.3 55.9986 124.993 55.2525 123.653 52.1543ZM110.711 44.2799L110.642 44.2864C110.668 45.6113 110.772 46.9405 110.7 48.26C110.614 49.8379 111.144 50.5513 112.825 50.3968C116.106 50.0952 119.4 49.9358 122.68 49.626C122.996 49.5986 123.303 49.5071 123.583 49.357C123.862 49.207 124.109 49.0015 124.306 48.7532C126.072 45.6662 124.349 38.3623 121.418 36.1843C121.099 35.9472 120.718 35.6097 120.374 35.619C117.493 35.6967 114.614 35.8451 111.734 35.9712C110.303 36.0339 109.942 36.8555 110.095 38.1501C110.336 40.1892 110.509 42.2363 110.711 44.2799ZM93.0961 35.9113C93.1749 39.9043 93.1778 43.549 93.3419 47.1866C93.4579 49.7595 94.4633 50.5765 97.1168 50.6241C99.1761 50.6611 99.7843 49.7419 99.0688 47.8018C98.7694 46.9561 98.548 46.0847 98.4074 45.1986C97.8942 42.1991 97.4254 39.192 96.9211 36.0734L93.0961 35.9113ZM107.658 4.2084C105.488 4.15183 105.128 4.9674 105.305 6.67452C106.071 14.0728 106.679 21.4875 107.36 28.8948C107.427 29.1774 107.534 29.4492 107.676 29.7024L108.442 29.6265C108.647 21.1458 108.386 12.6603 107.658 4.2084ZM99.4915 29.1469C99.3074 27.8265 99.2589 27.081 99.094 26.3622C98.1742 22.3533 97.2488 18.3453 96.2635 14.3522C96.0256 13.751 95.7078 13.1845 95.3188 12.6679C95.1122 13.3641 94.6193 14.1172 94.7447 14.7474C95.6802 19.4503 96.7117 24.1349 97.7871 28.8082C98.0525 29.4821 98.4145 30.1138 98.8617 30.6835L99.4915 29.1469ZM102.35 36.2566L104.562 49.8611C105.264 49.4873 105.446 49.1311 105.443 48.7766C105.411 45.1428 105.308 41.5091 105.314 37.8755C105.316 36.0021 104.471 35.5578 102.35 36.2566ZM120.247 33.9085L120.69 32.9356C119.792 32.3845 118.817 31.9724 117.796 31.7132C115.907 31.5708 114.01 31.5859 112.123 31.7585C111.544 31.7993 111 32.3401 110.439 32.652C110.949 33.1252 111.447 33.9899 111.971 34.0062C114.726 34.0918 117.488 33.9629 120.247 33.9085ZM101.657 50.3469L102.72 50.0889C101.904 45.6817 101.105 41.2712 100.238 36.8739C100.173 36.5433 99.6263 36.3075 99.3035 36.0275C99.1091 36.4869 98.6988 36.978 98.7607 37.3997C98.9487 38.6805 99.331 39.9319 99.6165 41.1995C100.303 44.2472 100.983 47.2963 101.657 50.3469ZM107.668 50.007L108.355 50.0879C108.594 45.4991 108.234 40.902 108.172 36.3091L107.397 36.2908L107.668 50.007ZM105.188 34.8816L105.392 31.8273L101.462 32.737L101.347 33.5511L105.188 34.8816ZM120.408 29.3456C121.379 25.7482 121.283 25.5666 118.479 25.2396L120.408 29.3456Z" fill="#121212"/>
<path d="M114.158 60.2562C114.704 59.3457 115.37 58.5121 116.136 57.7774C116.593 57.4334 117.55 57.7526 118.281 57.773C118.111 58.6066 118.214 59.8382 117.71 60.1834C116.894 60.7414 115.68 60.7165 114.634 60.9378L114.158 60.2562Z" fill="#121212"/>
<path d="M113.738 76.0823C114.661 76.9901 115.653 77.6922 115.554 77.9186C115.114 78.6607 114.568 79.3338 113.932 79.9163C113.317 79.3675 112.422 78.913 112.192 78.2338C112.058 77.8358 112.985 77.0797 113.738 76.0823Z" fill="#121212"/>
<path d="M108.071 83.3851C107.18 84.1241 106.595 84.9445 105.882 85.0768C105.449 85.1573 104.818 84.176 104.276 83.6717L106.369 81.5366L108.071 83.3851Z" fill="#121212"/>
<path d="M96.8432 60.6794L98.6834 57.9009C99.2655 58.3229 100.317 58.7138 100.347 59.1723C100.47 61.0232 99.2442 61.4919 96.8432 60.6794Z" fill="#121212"/>
<path d="M101.939 64.9902L101.859 60.969C103.096 62.0147 104.362 62.596 104.398 63.2455C104.438 63.975 103.368 64.7662 102.781 65.5305L101.939 64.9902Z" fill="#121212"/>
<path d="M39.1214 35.908C43.0643 36.4414 46.4878 37.0311 49.9365 37.3354C51.5584 37.4965 53.1091 38.0833 54.4313 39.0364C55.7536 39.9895 56.8007 41.275 57.4665 42.7628C60.261 48.2621 61.4635 54.4328 60.9383 60.5791C60.0536 72.7955 54.9401 80.7088 43.4629 85.6111C40.2413 87.1481 36.8323 88.2567 33.3229 88.9084C22.7778 90.374 12.9472 87.9871 5.69274 80.0174C3.13931 77.2347 1.359 73.8319 0.528914 70.1475C-0.301171 66.4631 -0.152095 62.6256 0.96131 59.0167C2.39914 54.0601 4.14874 49.1992 6.19967 44.4632C7.02322 43.0736 8.34272 42.0477 9.89243 41.592C13.7227 40.3417 17.6821 39.4872 22.0413 38.3588C19.424 27.9892 16.7709 17.4777 14.1653 7.15431C14.3754 6.84059 14.4109 6.71781 14.4836 6.68901C18.9306 4.92738 18.9847 4.91701 19.931 9.49801C21.8159 18.622 23.6353 27.7595 25.5536 37.2462C27.8447 37.0489 30.2743 36.9776 32.6345 36.5355C33.194 36.4307 33.7049 35.1314 33.9255 34.2987C35.899 26.8501 37.5328 19.2985 39.8343 11.9551C41.081 7.97748 45.184 7.2123 48.8266 6.63715C53.0136 5.97598 57.2585 5.6885 61.47 5.17132C62.8196 5.00558 64.5084 4.53674 64.4616 6.47919C64.3609 7.11357 64.1097 7.71459 63.7289 8.2319C63.3482 8.74921 62.849 9.16775 62.2732 9.45247C60.3128 10.1825 58.2141 10.465 56.1305 10.2793C48.9479 9.38613 44.7195 12.7434 42.889 19.2927C41.3843 24.6767 40.3934 30.2045 39.1214 35.908ZM55.6739 44.8152C53.2728 51.3223 48.5283 53.2858 42.8849 54.0256C40.5611 54.3302 38.3159 55.2288 35.9925 55.5425C33.953 55.8178 31.4629 56.3819 29.8668 55.5246C26.9562 53.9613 24.0648 54.1206 21.0679 54.0621C15.7035 53.9573 10.1654 54.34 6.2468 48.8533C4.79375 52.9021 3.29954 56.8684 2.74549 60.9619C1.95955 66.7686 2.50909 72.7938 6.4594 77.3449C13.7106 85.6987 23.3186 88.2505 34.0234 86.3511C37.4483 85.7445 40.75 84.5784 43.7962 82.8995C47.3456 80.9147 51.3467 78.7528 53.5679 75.564C60.0394 66.2734 60.9802 56.0848 55.6739 44.8152ZM22.7554 41.3457C22.5067 41.0657 22.2581 40.7856 22.0095 40.5056C18.3664 41.3779 14.672 42.082 11.0954 43.1727C7.89264 44.1493 7.25658 46.8066 9.86492 48.9298C11.6354 50.2474 13.7148 51.0877 15.9037 51.3699C19.5326 51.9071 23.3356 51.4542 26.8963 52.212C30.1028 52.8945 33.0747 54.4704 36.4956 53.2748C38.4475 52.5926 40.4802 51.6936 42.4803 51.6841C47.7763 51.6587 51.0957 49.0138 53.4055 44.574C54.3837 42.6937 53.8861 40.7902 51.8171 40.3318C47.8814 39.4599 43.884 38.8225 39.8818 38.3393C39.2099 38.2582 38.3853 39.4427 37.6312 40.0424L37.9486 40.8159C39.6111 40.9907 41.4067 40.8316 42.9011 41.4276C44.6059 42.2977 46.216 43.342 47.7057 44.5437C46.6317 45.9917 45.7848 47.7284 44.4175 48.8031C43.0875 49.8763 41.4543 50.5051 39.748 50.6008C31.7009 50.5637 23.6555 50.3451 15.612 49.9449C15.1219 49.9832 14.6335 49.8523 14.2282 49.5742C13.823 49.296 13.5253 48.8873 13.3848 48.4162C13.2443 47.9452 13.2695 47.4402 13.4563 46.9855C13.643 46.5307 13.9799 46.1537 14.4109 45.9173C16.2893 44.5562 18.7213 43.9771 20.8543 42.9396C21.5515 42.4891 22.1901 41.9537 22.7554 41.3457ZM36.408 48.8723C37.9438 48.7348 39.4688 48.4958 40.973 48.1568C42.7112 47.6453 45.3612 47.2869 44.7863 44.9653C44.5248 43.909 41.743 43.2265 40.005 42.8939C39.4613 42.8873 38.9243 43.0141 38.4411 43.2633C37.9578 43.5125 37.5431 43.8764 37.2331 44.3231C36.6135 45.4879 36.6969 47.0268 36.408 48.8723ZM36.1961 35.9991C39.1799 27.6112 39.1916 18.3057 44.1637 10.5522C38.3661 18.0213 38.4382 27.397 36.1961 35.9991ZM30.9907 42.6404C29.5319 43.4397 27.3267 43.9819 27.1999 44.8335C26.6695 48.3945 27.4992 48.82 31.982 48.6113C31.7212 47.0405 31.4444 45.3732 30.9907 42.6404ZM17.1083 46.2415L17.2976 47.6641L24.8115 48.2129C23.9488 46.9628 23.3085 46.0348 22.4137 44.7381L17.1083 46.2415ZM21.0971 26.8385L21.5827 26.7298C20.1705 20.8025 18.7584 14.8752 17.3463 8.9479L16.5512 9.14407C18.0665 15.0422 19.5818 20.9403 21.0971 26.8385ZM32.3348 38.7593C30.4979 38.9677 28.9146 39.0844 27.3609 39.3652C27.1202 39.4447 26.9005 39.577 26.7177 39.7526C26.5349 39.9281 26.3937 40.1423 26.3046 40.3795C26.2842 40.6052 26.318 40.8326 26.4032 41.0426C26.4885 41.2525 26.6226 41.4391 26.7946 41.5868C28.2164 42.6729 32.0083 40.8846 32.3348 38.7593Z" fill="#121212"/>
<path d="M8.08708 66.94C6.29814 64.7936 5.56623 58.1271 7.23359 55.8014C7.40931 55.5563 7.95921 55.2826 8.11019 55.3782C8.43004 55.5806 8.81831 56.0303 8.79995 56.3574C8.5939 60.0288 8.31585 63.6961 8.08708 66.94Z" fill="#121212"/>
<path d="M52.7436 61.36C52.7578 58.4537 52.7462 55.5465 52.828 52.642C52.8357 52.3668 53.429 52.1081 53.7504 51.8418C54.0518 52.252 54.6317 52.6776 54.61 53.0699C54.4563 55.8439 54.1791 58.611 53.9413 61.3803C53.5421 61.3735 53.1428 61.3668 52.7436 61.36Z" fill="#121212"/>
<path d="M35.1107 68.2876C34.5458 65.1528 33.9809 62.018 33.3716 58.6372C35.5674 59.8982 36.675 64.8409 35.1107 68.2876Z" fill="#121212"/>
<path d="M27.7117 81.7179C24.9538 81.2365 23.2087 77.8454 24.4226 74.5437C25.6361 77.1906 26.6415 79.3836 27.7117 81.7179Z" fill="#121212"/>
<path d="M43.9714 58.7178C46.162 59.2471 46.3149 63.1794 43.9274 67.7406L43.9714 58.7178Z" fill="#121212"/>
<path d="M14.4544 59.1008C14.7886 62.087 15.0853 64.7388 15.3785 67.3591C13.2254 66.4119 12.5813 62.0522 14.4544 59.1008Z" fill="#121212"/>
<path d="M10.8054 73.9412C11.9525 75.691 13.0997 77.4409 14.2469 79.1907L13.3687 79.7981C10.9213 78.9783 10.9314 76.3995 9.77991 74.6521L10.8054 73.9412Z" fill="#121212"/>
<path d="M46.9179 69.2742C47.9296 72.4531 46.46 76.416 43.9927 77.6848C44.9627 74.8958 45.8187 72.4346 46.9179 69.2742Z" fill="#121212"/>
<path d="M176.904 20.9235C180.065 20.6607 183.243 20.4402 186.399 20.0901C186.71 20.0114 186.994 19.8744 187.229 19.6901C187.464 19.5057 187.643 19.279 187.753 19.028C188.54 16.6827 189.174 14.303 189.873 11.9375C190.502 9.80756 191.65 8.02032 194.392 7.2433C198.681 6.02787 202.959 4.78604 207.242 3.55571C207.43 3.50176 207.616 3.44112 207.808 3.40029C208.455 3.26277 209.105 3.13281 209.754 3C209.963 3.64499 210.039 4.31385 209.981 4.97942C209.868 5.37638 209.114 5.74469 208.552 5.94483C205.606 6.99289 202.627 7.97748 199.668 8.99907C199.22 9.23281 198.749 9.4344 198.259 9.60159C194.626 10.246 193.134 12.352 192.463 15.1045C192.052 16.7945 191.492 18.4602 191.001 20.1281C195.074 21.0188 195.233 21.0131 195.411 24.3809C195.574 27.4738 195.329 30.5805 195.294 33.6814C195.251 37.4844 195.573 41.3147 195.123 45.0838C194.629 49.226 193.757 53.4901 190.356 56.7838C188.887 58.2074 186.327 58.8737 183.872 60.0754C184.089 62.9567 184.303 66.3201 184.603 69.6783C185.036 74.5201 185.558 79.3566 185.981 84.199C185.955 84.7993 186.168 85.3903 186.587 85.8826C187.007 86.3749 187.61 86.7416 188.306 86.9272C190.353 87.5564 192.316 88.3641 194.348 89.0269C195.462 89.39 195.859 89.8339 195.123 90.7307C194.206 91.8118 192.964 92.6796 191.518 93.2494C190.071 93.8193 188.469 94.0718 186.868 93.9824C182.981 93.7698 179.114 93.3519 175.292 92.7315C174.542 92.5482 173.814 92.3078 173.118 92.0133C174.663 90.8078 175.911 89.8317 177.166 88.862C177.278 88.8029 177.398 88.755 177.524 88.7194C180.823 87.2551 182.025 85.4073 181.36 82.0041C180.195 76.049 180.095 69.9537 179.55 63.9171C179.536 63.7541 179.528 63.59 179.531 63.4267C179.581 60.8106 178.889 58.9927 175.091 58.1848C170.718 57.2545 168.873 54.0138 168.435 50.5422C167.881 46.158 167.761 41.7364 167.482 37.3299C167.396 35.971 167.471 34.6029 167.316 33.2512C167.247 33.0358 167.117 32.8367 166.936 32.6702C166.756 32.5036 166.531 32.3743 166.278 32.2925C161.13 31.0522 159.422 27.0932 160.166 23.2577C160.744 20.2737 162.177 17.8437 165.654 16.5685C170.577 14.7632 176.086 16.6648 176.904 20.9235ZM192.084 10.8532C191.284 13.005 190.484 15.1567 189.684 17.3084L190.209 17.4255C190.826 15.2299 191.442 13.0343 192.059 10.8387C194.671 9.5889 197.282 8.33905 200.214 6.93616C198.199 7.51384 196.222 8.1772 194.291 8.92354C193.392 9.31389 192.809 10.1941 192.084 10.8532ZM162.161 22.2431C161.593 23.7767 160.913 25.3088 162.042 27.0285C162.079 25.3205 162.112 23.7775 162.144 22.2345C162.477 21.5882 162.868 20.9631 163.314 20.3643C165.931 17.3406 170.205 16.4 173.62 19.4133C173.911 19.6696 174.24 19.8963 174.687 20.2417C174.385 18.193 170.852 16.8811 168.198 17.1993C166.673 17.4129 165.27 18.0152 164.186 18.9206C163.103 19.826 162.394 20.9885 162.161 22.2431ZM168.265 38.2879C168.725 42.0171 168.971 45.2284 169.567 48.3952C169.945 50.401 170.269 52.6761 171.626 54.2412C174.605 57.6759 179.213 58.4983 184.164 58.0192C185.765 57.9126 187.29 57.4118 188.54 56.5823C189.789 55.7527 190.704 54.6331 191.165 53.3699C192.031 51.6751 192.671 49.9086 193.075 48.1011C193.577 44.6896 193.672 41.2377 193.947 37.6571C192.759 38.1502 191.498 38.5153 190.196 38.7435C186.335 38.9093 182.46 38.9874 178.595 38.9154C175.387 38.8557 172.185 38.5373 168.265 38.2879ZM193.287 90.2484C192.01 89.7732 190.938 89.3772 189.869 88.9762C188.426 88.4345 186.964 87.9209 185.553 87.3256C185.13 87.1468 184.601 86.7627 184.548 86.427C184.224 84.3895 183.952 82.3425 183.797 80.2918C183.316 73.929 182.921 67.5618 182.407 61.201C182.363 60.6612 181.681 60.1562 181.296 59.635L180.47 59.9185C180.662 61.475 180.878 63.0297 181.042 64.5882C181.712 70.9328 182.275 77.2861 183.064 83.6205C183.455 86.7575 183.357 87.0855 180.03 88.7358C178.671 89.5121 177.381 90.3663 176.169 91.292C179.385 92.0242 182.688 92.4663 186.021 92.6104C188.567 92.6858 191.202 92.4226 193.287 90.2484ZM185.979 25.1366C184.562 25.043 183.14 25.0079 181.719 25.0314C179.474 25.1625 176.726 24.7258 176.484 27.6414C176.466 27.861 176.071 28.0483 175.891 28.272C174.093 30.5045 171.845 32.2554 168.47 32.7381C168.54 33.8603 168.599 34.8025 168.648 35.6051C173.344 34.8302 177.925 34.0194 182.537 33.3515C183.706 33.1822 184.298 32.8756 184.493 31.9259C184.949 29.6945 185.464 27.4711 185.979 25.1366ZM193.803 33.0108C193.767 30.0118 193.732 27.0225 193.695 23.9042C192.721 24.0791 191.763 24.3109 190.829 24.5979C190.33 24.7892 189.7 25.1889 189.603 25.5757C189.017 27.8971 188.569 30.2417 188.057 32.6597L193.803 33.0108ZM170.406 36.504L170.544 37.1892C174.807 37.4141 179.069 37.6391 183.471 37.8714C183.647 36.5013 183.774 35.5164 183.938 34.2433C179.207 35.0337 174.806 35.7689 170.406 36.504ZM186.859 21.3552L177.654 22.1206L177.584 23.9738C179.862 23.9632 182.027 23.8992 184.186 23.9583C186.324 24.0169 187.197 23.2488 186.859 21.3552ZM193.625 35.1803C191.822 34.4443 189.915 33.6387 188.099 34.5996C187.408 34.9657 187.526 36.3623 187.261 37.3443C188.463 37.5321 189.706 37.4273 190.837 37.0428C191.968 36.6583 192.937 36.0109 193.625 35.1803ZM167.866 30.7607C171.038 31.3975 174.558 28.6761 175.268 25.1721C173.017 27.1216 171.702 29.8874 167.866 30.7607ZM185.714 32.7637L186.433 32.8714C186.937 30.2931 187.441 27.7147 187.946 25.1364L187.552 25.0738C186.939 27.6371 186.326 30.2004 185.714 32.7637ZM184.967 37.4363L185.639 37.4794C185.785 36.5068 185.932 35.5343 186.078 34.5618L185.39 34.4943C185.249 35.475 185.108 36.4557 184.967 37.4363ZM166.649 25.4851L165.79 25.1227C165.395 25.8369 165 26.5511 164.604 27.2654L165.284 27.5382C165.739 26.8538 166.194 26.1695 166.649 25.4851ZM193.215 22.0951C192.064 21.8662 191.49 21.7521 190.782 21.6114C190.592 22.2484 190.436 22.7707 190.196 23.5719C191.257 23.053 191.96 22.709 193.215 22.0951Z" fill="#121212"/>
<path d="M171.887 44.9607C171.772 43.6662 171.497 42.3378 173.468 42.0928C173.844 42.0461 174.84 43.1073 174.827 43.6453C174.791 45.0949 173.56 45.3668 171.887 44.9607Z" fill="#121212"/>
<path d="M191.267 46.1595C191.345 43.7788 191.408 41.8175 191.472 39.8562L192.062 39.8874C193.031 41.1919 192.774 44.5851 191.267 46.1595Z" fill="#121212"/>
</svg>
