<svg width="1180" height="1129" viewBox="0 0 1180 1129" fill="none" xmlns="http://www.w3.org/2000/svg">
<path d="M772 352.023C772 408.718 758.35 461.87 731.049 511.478C704.76 561.087 662.798 601.077 605.163 631.45C548.54 661.822 476.749 677.009 389.792 677.009H226.338C218.606 677.009 212.338 683.277 212.338 691.009V1070C212.338 1077.73 206.07 1084 198.338 1084H14C6.26801 1084 0 1077.73 0 1070V38C0 30.268 6.26801 24 14 24H389.792C471.694 24 541.462 38.1738 599.096 66.5215C656.731 94.8691 699.704 133.847 728.016 183.456C757.339 233.064 772 289.253 772 352.023ZM380.692 505.404C439.337 505.404 482.816 492.243 511.128 465.92C539.439 438.585 553.595 400.619 553.595 352.023C553.595 248.756 495.961 197.123 380.692 197.123H226.338C218.606 197.123 212.338 203.391 212.338 211.123V491.404C212.338 499.136 218.606 505.404 226.338 505.404H380.692Z" fill="#1F1F1F"/>
<path d="M1165.15 0C1172.79 0 1178.49 7.04523 1176.89 14.5158L1008.84 798.286C1007.65 803.818 1002.76 807.771 997.105 807.771H855.839C849.043 807.771 843.604 802.133 843.846 795.342L871.825 11.5719C872.056 5.11521 877.357 0 883.818 0H1165.15ZM872.238 1129C842.03 1129 817.771 1120.31 799.463 1102.92C781.154 1085.53 772 1063.56 772 1037.02C772 1000.42 785.731 969.301 813.194 943.675C841.572 917.135 874.527 903.865 912.059 903.865C942.268 903.865 966.069 912.559 983.462 929.948C1001.77 946.421 1010.92 968.385 1010.92 995.841C1010.92 1032.45 997.193 1064.02 969.731 1090.56C942.268 1116.19 909.771 1129 872.238 1129Z" fill="#0086D5"/>
</svg>
