<svg width="195" height="89" viewBox="0 0 195 89" fill="none" xmlns="http://www.w3.org/2000/svg">
<path d="M11.5532 37.5037L0.521761 30.9164L0.56291 30.1694L6.063 29.9719C4.02374 26.8644 2.0119 23.7987 0 20.733L0.588659 19.9649L6.73652 23.3791C5.53536 17.5566 4.41417 12.1218 3.2481 6.46935C6.93793 6.32704 7.9031 10.122 10.7881 11.5069C11.3734 9.32809 11.9568 7.15618 12.5796 4.83788C15.4334 5.05744 14.6957 8.40553 16.7686 9.25207C17.4693 6.67881 18.1554 3.96207 18.9836 1.2894C19.1441 0.77146 19.8593 0.4254 20.3186 0C20.7031 0.5509 21.334 1.06235 21.4296 1.65949C21.8465 4.26478 22.1077 6.89497 22.4651 9.8427C23.8206 8.64852 24.7301 7.84736 26.013 6.71706C26.5643 9.03874 26.9826 10.8003 27.4268 12.6712C29.4593 12.5853 30.4905 9.6727 33.0935 10.6363L29.7844 19.26L37.6066 16.5369L37.9334 17.2628C36.2774 20.0491 34.6214 22.8353 32.7346 26.0097L38.6003 24.9918L39.0886 25.7918C38.4267 26.5264 37.6885 27.1884 36.8863 27.7666C32.8408 30.0956 29.0042 32.5953 27.3916 37.3235C27.3376 37.5857 27.3096 37.8526 27.308 38.1203C28.2244 38.626 29.1496 39.1568 30.0926 39.6535C35.0942 42.2881 36.6882 46.9524 37.353 52.0799C37.9473 55.7946 38.2737 59.5472 38.3297 63.3087C38.2801 66.4923 37.0574 69.6543 36.9759 72.8417C36.8584 77.4336 33.6908 80.1611 31.0687 82.9975C25.6961 88.8091 16.9507 90.374 10.4061 85.1811C8.09528 83.3475 6.66801 79.9124 5.72773 76.928C2.49028 66.6523 3.69442 56.3773 6.74556 46.2628C7.58038 43.8681 8.60288 41.5431 9.80356 39.3093C10.1075 38.6833 10.8094 38.2506 11.5532 37.5037ZM12.9385 15.1402C14.336 17.2822 15.4076 18.9244 16.6019 20.7547C17.562 19.0934 18.4353 17.6549 19.2358 16.1768C20.0251 14.7196 20.8422 14.4692 21.5644 16.1396C22.6066 18.5498 23.5282 21.0121 24.4105 23.2247C29.3947 21.8453 27.6985 16.5966 30.4735 13.0975L26.3295 15.4584C25.8549 13.4564 25.4878 11.9077 25.0279 9.96812C24.5261 10.6701 24.3666 10.9268 24.1742 11.156C23.5925 11.8494 22.9981 12.5322 22.4086 13.219C21.9819 12.4979 21.627 11.7366 21.349 10.9461C20.8416 8.92526 20.4677 6.8709 20.0402 4.82996L19.6202 4.91826L17.2929 13.0392L16.6279 12.9722C15.5997 11.362 14.5715 9.75174 13.5434 8.14151C12.9169 9.43991 12.4888 10.8249 12.2732 12.2503C12.0358 13.0089 11.7376 13.7471 11.3815 14.4578C10.7786 14.0567 10.2016 13.6181 9.65379 13.1447C8.35626 11.887 7.11156 10.5749 5.84568 9.28454L5.16033 9.72554C6.20927 13.8714 7.24546 18.0205 8.3141 22.1612C8.68731 23.6072 8.95391 25.1737 10.8795 25.6078C12.7445 22.4721 10.6622 18.5707 12.9385 15.1402ZM16.0454 33.3777C16.5914 30.5837 17.0472 27.9437 17.6609 25.3408C17.8036 24.7354 18.4841 24.2567 18.9172 23.7197C19.2665 24.2444 19.5539 24.8078 19.7736 25.3987C20.3143 27.5706 20.7659 29.7648 21.2622 32.0007C24.1951 30.5148 26.6807 29.3408 29.0712 27.9975C29.9228 27.5062 30.6285 26.7973 31.1159 25.9436C32.2596 23.8652 33.2085 21.6797 34.2355 19.537L33.8755 19.1649C30.3428 21.4577 26.8102 23.7504 23.2237 26.0782L20.8333 17.9446L20.1686 17.9438C19.0766 20.0627 17.9847 22.1816 16.6686 24.7357C15.4744 22.6118 14.6281 21.1068 13.5918 19.2638C13.5014 21.9117 13.4219 24.1768 13.348 26.4422C13.3243 27.1699 13.3154 27.898 13.2997 28.6259C12.6216 28.4169 11.9595 28.1591 11.3185 27.8544C9.16094 26.6463 7.03544 25.3808 4.36422 23.8267C5.31987 26.2924 6.89831 28.4684 8.94555 30.1423C10.9928 31.8162 13.439 32.9309 16.0454 33.3777ZM13.2955 64.0129L13.9832 64.0122C14.8203 62.7576 15.6337 61.4864 16.5013 60.2532C17.3043 59.1119 18.1243 59.0153 18.998 60.2507C19.5731 61.0639 20.2716 61.7899 21.1077 62.7843C22.4327 57.4749 20.0858 49.5727 16.4473 47.7377C13.6258 51.9426 13.6392 51.9429 13.539 56.7151C13.488 59.1483 13.3786 61.5803 13.2955 64.0129ZM34.4064 45.5402C29.6647 48.8145 27.9347 57.3685 30.4201 62.9414C31.2545 61.8369 31.832 60.3447 32.8366 59.9556C33.766 59.5957 35.1526 60.4169 36.8783 60.8552C36.0966 56.0123 35.2882 51.0035 34.4064 45.5402ZM14.428 74.6394L15.1791 74.7727C15.7354 72.3138 16.2917 69.8548 16.8479 67.3959C17.4647 71.0411 17.4886 74.621 21.3785 76.8589C21.5001 73.2963 22.0165 69.945 21.5513 66.736C21.3252 65.1757 19.2639 63.8814 18.0334 62.4667C17.021 63.4529 16.0605 64.491 15.1558 65.5769C12.9812 68.4506 14.6037 71.6102 14.428 74.6394ZM28.4963 61.1895C26.8661 56.9145 29.402 51.5547 24.5333 47.4424C23.7533 49.1578 22.6616 50.4792 22.6327 51.8234C22.5433 55.9852 22.8584 60.1557 23.0165 64.3229C23.8356 63.6593 24.4934 62.8185 24.9402 61.8637C26.0563 59.6935 26.3203 59.6366 28.4963 61.1895ZM12.0334 66.3039C11.991 62.2672 12.0171 58.4917 11.8882 54.7214C11.8038 52.2519 12.2511 49.5404 9.56848 47.7797C8.74182 48.5763 8.04479 49.4973 7.50264 50.5093C6.8929 52.2733 5.88781 54.4863 6.46315 55.9578C7.85734 59.5236 10.0657 62.7711 12.0334 66.3039ZM10.4475 70.2689C10.2735 70.7934 10.1214 71.2517 9.96936 71.7099C9.25089 69.9615 8.44694 68.0734 8.88701 66.5432C9.82529 63.2806 7.43191 61.8012 6.19569 59.3013C3.95382 65.8946 6.53946 74.0711 12.5511 78.757C12.4906 75.8086 12.4407 73.3768 12.393 71.0527L10.4475 70.2689ZM5.79766 31.5935L5.5491 32.1923C6.7778 32.7402 7.95343 33.4 9.0611 34.1635C13.7508 38.0378 19.3515 36.2234 24.5674 36.7825C24.6448 36.7813 24.721 36.7636 24.7909 36.7305C24.8608 36.6974 24.9228 36.6497 24.9728 36.5907C26.7496 34.2893 28.5148 31.9791 30.5742 29.2894C30.0483 29.402 29.5339 29.5631 29.0376 29.7706C26.8321 31.123 24.6315 32.4846 22.4572 33.8863C21.4589 34.5299 20.4281 35.4335 19.7769 33.6464C19.4116 32.4277 19.1262 31.1866 18.9225 29.9308C18.5062 31.6063 18.1938 33.3059 17.9873 35.0199C17.778 36.3941 16.9284 36.629 15.8053 36.0515C15.1961 35.7382 14.7093 35.1651 14.0855 34.9055C11.3392 33.7624 8.56301 32.6909 5.79766 31.5935ZM17.1135 75.5591L16.0683 75.6485C15.6088 76.8698 14.7863 78.0895 14.7811 79.3126C14.7747 80.8656 15.5958 82.4042 15.7617 83.9803C15.9844 86.0972 17.24 86.466 18.9845 86.3479C20.9711 86.2133 21.8597 85.2066 21.711 83.1809C21.683 81.9649 21.7171 80.7484 21.8133 79.5359L20.1189 80.0182C19.0248 78.3949 18.0691 76.977 17.1135 75.5591ZM35.4728 72.9877C35.6083 69.0028 38.3411 64.9915 33.8385 61.9734C30.2653 64.5031 28.8702 70.4033 30.2661 73.4674C31.9756 70.9498 31.9756 70.9498 35.4728 72.9877ZM23.1815 85.9859C25.377 84.8898 27.3157 84.5788 27.7357 82.3431C28.3015 79.3312 27.2014 76.912 25.0719 74.648C22.545 78.1047 23.772 81.8359 23.1815 85.9859ZM23.4722 74.4608C24.4072 71.7877 25.123 69.7417 25.8386 67.6957C27.1311 70.2411 25.4293 73.3017 28.8813 75.5967C27.1795 71.1429 29.8664 66.6892 26.9513 62.8033C24.4403 64.6718 22.9939 69.3807 23.4722 74.4608ZM18.7779 38.2221C15.5641 39.0597 13.594 43.7116 14.1272 47.6318C15.0134 46.9335 16.0186 45.5403 16.8414 45.6407C17.9405 45.7749 18.898 47.0685 20.0329 47.9552C19.6096 44.673 19.2059 41.5417 18.7779 38.2221ZM21.7649 47.9746C22.9929 46.0986 23.9182 44.2292 26.5449 46.6826C25.7863 44.5733 25.1248 42.9378 24.6129 41.2569C24.026 39.3297 23.3244 37.7296 20.524 38.7633C20.9378 41.8348 21.3514 44.9052 21.7649 47.9746ZM28.6965 48.4998C29.8629 46.8688 31.0035 45.2738 32.4124 43.3036L25.918 39.1306C26.9429 42.5867 27.8169 45.5336 28.6965 48.4998ZM29.7603 82.173C30.5056 81.1827 31.3492 80.5484 31.4711 79.797C31.7134 78.3042 31.9075 77.0438 33.6889 76.6343C33.891 76.5879 33.8239 75.3704 33.8816 74.696C33.1506 74.7104 32.0306 74.4269 31.7533 74.7889C30.2262 76.7821 28.9423 78.9436 29.7603 82.173ZM8.72325 45.346C9.27302 45.2371 9.86925 45.2591 9.93413 45.0841C10.4686 43.6426 10.9045 42.1644 11.4223 40.5334C13.6758 41.6509 11.6159 42.7676 11.6659 43.776C11.7224 44.9134 11.6099 46.0592 11.5709 47.2014L12.1794 47.2026C12.7465 44.5906 13.3137 41.9786 13.9119 39.2234C10.3375 39.9786 10.3552 43.1763 8.72325 45.346ZM11.6564 84.2018L12.6609 83.9817L13.3316 81.3961C12.6629 81.4042 11.9954 81.336 11.3421 81.1928C10.7488 81.0186 10.2258 80.6612 9.84796 80.1718C9.08525 78.9869 8.4895 77.6945 7.82678 76.4452L7.12108 76.8655C8.63288 79.311 10.1447 81.7564 11.6564 84.2018Z" fill="#121212"/>
<path d="M35.2484 65.203L34.1847 70.06L33.2629 69.9035C33.5315 68.2663 33.8002 66.6291 34.0689 64.9919L35.2484 65.203Z" fill="#121212"/>
<path d="M114.673 87.4416C111.064 87.012 106.96 87.1886 103.332 85.96C94.4732 82.96 85.6905 79.1462 79.8453 71.5639C74.7813 64.989 71.5605 57.1837 70.514 48.951C69.6631 42.5717 69.8698 36.0957 71.1256 29.7837C72.1898 23.5438 75.5148 17.9144 80.4659 13.9702C81.8023 12.8879 82.9422 11.2273 84.9213 12.4045C86.0006 13.1312 86.9778 13.999 87.8272 14.9846C90.404 17.6816 92.9022 20.4539 95.4879 23.1422C96.4473 24.1398 96.8378 24.9714 95.964 26.3136C95.3305 27.1721 95.0101 28.2216 95.0562 29.2876C95.1023 30.3535 95.512 31.3715 96.2173 32.1721C96.8415 33.0296 97.7297 33.6587 98.7457 33.963C99.7617 34.2673 100.85 34.2299 101.842 33.8567C102.425 33.6617 103.583 33.7372 103.749 34.0615C104.009 34.7559 103.989 35.5239 103.695 36.2043C102.922 38.0683 102.576 39.4889 105.442 39.2523C105.843 39.2191 106.328 39.6417 106.697 39.9473C107.005 40.2023 107.327 40.9185 107.424 40.8799C110.98 39.4639 111.524 42.9073 113.055 44.4897C116.803 48.3636 120.335 52.4469 123.964 56.4369C129.403 62.4178 134.846 68.3959 140.291 74.3712C140.583 74.6917 140.774 75.109 141.085 75.4057C143.343 77.565 143.223 80.4669 140.429 81.8882C137.205 83.5283 133.839 85.2315 130.341 85.9104C125.325 86.8838 120.134 86.9547 114.673 87.4416ZM140.567 78.2089C137.209 74.2433 134.489 70.8494 131.576 67.6309C126.321 61.8262 121.001 56.0807 115.616 50.3945C112.211 46.7785 109.116 42.6947 103.709 41.8073C101.685 41.475 100.925 40.0818 100.601 38.1388C100.487 37.697 100.273 37.2874 99.9757 36.9412C99.6785 36.595 99.3058 36.3216 98.8865 36.1418C93.6836 34.6473 91.8923 31.4811 93.188 26.0253C93.2996 25.5474 93.3128 25.0518 93.2265 24.5687C93.1403 24.0855 92.9566 23.625 92.6865 23.2153C90.5056 20.7132 88.0961 18.4114 85.792 16.0155C84.6855 14.8649 83.5982 14.5975 82.499 15.9762C80.8256 18.075 78.864 20.0186 77.5745 22.3342C74.4803 27.9054 73.0788 34.2582 73.5417 40.6142C74.113 49.3341 77.2077 57.6997 82.4488 64.6921C88.6735 73.3278 98.193 77.2007 107.894 80.5111C114.008 82.5974 120.312 82.4589 126.548 81.4722C131.129 80.7474 135.61 79.3882 140.567 78.2089ZM133.531 83.0685L133.332 82.3042C120.299 86.3041 108.08 84.1432 96.0572 78.2976C83.6404 72.2608 76.4617 62.3355 72.8304 49.354C73.5329 54.8845 75.3384 60.2177 78.1399 65.0377C80.3445 68.8265 82.7097 72.4565 86.3825 74.9628C89.0113 76.7989 91.746 78.4785 94.5724 79.9928C100.239 82.9478 106.129 85.3141 112.694 85.1573C117.229 85.049 121.774 85.012 126.29 84.6429C128.737 84.2868 131.157 83.7607 133.531 83.0685Z" fill="#121212"/>
<path d="M90.5207 52.2473C91.6042 56.8143 91.2732 57.6959 88.1011 58.2904C87.595 58.3441 87.0833 58.2744 86.61 58.0873C86.1366 57.9001 85.7156 57.6012 85.383 57.2159C85.0586 56.6439 85.6369 55.0894 86.293 54.5366C87.6189 53.6288 89.0358 52.8616 90.5207 52.2473Z" fill="#121212"/>
<path d="M117.197 66.1315C117.737 65.383 117.934 64.8648 118.309 64.6336C119.609 63.7979 120.966 63.0532 122.369 62.4047C122.885 62.1777 123.626 62.4618 124.264 62.5127C124.221 63.1634 124.104 63.807 123.914 64.4308C123.614 65.3194 123.129 66.1348 122.493 66.8241C121.824 67.5037 120.918 67.8975 119.965 67.9227C119.021 67.7655 118.208 66.8282 117.197 66.1315Z" fill="#121212"/>
<path d="M112.276 49.5609C111.52 50.9645 110.634 52.2938 109.629 53.5315C108.851 54.1208 107.876 54.3877 106.906 54.2769C106.571 54.1686 106.27 53.9746 106.032 53.7142C105.795 53.4537 105.63 53.1358 105.553 52.792C105.629 51.8698 106.01 50.5385 106.685 50.1879C108.287 49.5086 109.949 48.9813 111.649 48.613L112.276 49.5609Z" fill="#121212"/>
<path d="M83.3463 45.5462C83.0465 45.2048 82.1008 44.5758 81.8573 43.7419C81.5249 42.6028 84.6765 40.2982 86.5045 40.3816C86.8279 40.4847 87.1197 40.6683 87.3527 40.9151C87.5856 41.1619 87.752 41.4639 87.8362 41.7927C88.0121 43.989 86.419 45.4918 83.3463 45.5462Z" fill="#121212"/>
<path d="M101.691 62.5376C102.408 65.872 100.826 68.5579 98.2257 68.5193C97.3857 68.5069 96.559 67.5996 95.7262 67.1017C96.1687 66.3912 96.704 65.7428 97.318 65.1739C98.6401 64.2352 100.095 63.4831 101.691 62.5376Z" fill="#121212"/>
<path d="M83.4847 27.996C83.1247 27.5538 82.4574 26.7343 81.79 25.9148C83.0339 24.9196 84.3626 24.0355 85.761 23.2726C86.0875 23.1211 87.5233 24.2772 87.637 24.9654C87.9136 26.6401 86.2645 27.9465 83.4847 27.996Z" fill="#121212"/>
<path d="M114.746 72.7268C115.238 76.12 113.973 78.343 111.736 78.4751C111.373 78.4862 111.013 78.4137 110.683 78.2633C110.353 78.1129 110.062 77.8885 109.833 77.6077C109.692 77.2635 109.64 76.8895 109.681 76.5198C109.721 76.1501 109.854 75.7966 110.067 75.4915C111.569 74.4754 113.131 73.5521 114.746 72.7268Z" fill="#121212"/>
<path d="M163 34.949C163.591 28.9801 164.166 23.5053 167.151 18.5719C169.91 14.0107 176.946 13.7375 179.886 18.2163C181.858 21.2198 184.205 24.0843 185.578 27.3499C187.864 32.7851 189.469 38.5041 191.43 44.079C192.199 46.2636 193.116 48.3992 194.036 50.5267C195.627 54.2081 195.339 60.454 190.038 62.375C189.636 62.5204 189.254 62.724 188.846 62.8444C187.193 63.3322 186.924 64.2651 187.509 65.8729C189.261 70.6854 190.924 75.5298 192.498 80.406C193.182 82.5389 192.551 83.8856 191.018 84.5125C188.653 85.4791 186.107 84.9757 185.11 83.2034C184.543 82.1883 184.121 81.0993 183.854 79.9677C182.933 76.0458 182.044 72.1134 181.282 68.1581C180.987 66.6274 180.456 66.2383 178.948 66.7446C176.69 67.5026 174.413 67.9844 171.976 67.1201C171.258 66.8518 170.618 66.4098 170.113 65.8334C169.608 65.2571 169.254 64.5646 169.082 63.8178C167.702 59.4715 166.378 55.0987 165.276 50.6755C164.713 47.9886 164.289 45.2744 164.005 42.5438C163.629 39.8846 163.299 37.2187 163 34.949ZM187.839 38.1041C187.258 38.2671 186.652 38.3273 186.05 38.282C185.526 38.0414 184.931 38.0085 184.384 38.1902C183.837 38.3718 183.379 38.7544 183.104 39.2605C182.748 39.6074 182.31 39.8589 181.832 39.992C181.353 40.125 180.848 40.1352 180.365 40.0216C178.564 39.1956 177.708 39.8019 176.82 41.2886C175.851 42.9114 174.547 43.1543 172.91 42.2759C169.971 40.6988 169.243 41.156 168.856 44.398C168.76 45.7533 168.248 47.0458 167.389 48.0985C166.634 48.8558 166.206 49.3098 166.528 50.3235C167.979 54.9037 169.362 59.5071 170.918 64.0514C171.083 64.4626 171.341 64.8297 171.673 65.1235C172.004 65.4172 172.4 65.6296 172.828 65.7436C174.818 65.9863 176.836 65.8423 178.771 65.3195C182.588 63.9459 186.228 62.0807 189.943 60.4242C192.068 59.4769 192.918 57.8576 193.08 55.5292C193.319 52.1068 191.715 49.2585 190.68 46.2227C189.759 43.5176 188.794 40.827 187.839 38.1041ZM166.464 46.81L167.099 46.8195C167.262 45.634 167.433 44.4496 167.588 43.2631C167.996 40.1282 170.476 38.7002 172.815 40.2585C174.801 41.5811 175.116 41.5187 176.305 39.5673C177.396 37.7755 178.284 37.4152 180.177 38.2793C180.354 38.3976 180.555 38.4755 180.765 38.5074C180.976 38.5394 181.191 38.5247 181.395 38.4643C181.6 38.4039 181.788 38.2993 181.947 38.1579C182.107 38.0166 182.233 37.8419 182.317 37.6463C182.607 37.1047 183.076 36.6805 183.644 36.4465C184.212 36.2124 184.843 36.1831 185.431 36.3634C186.879 36.6935 187.298 36.1621 186.828 34.6847C186.368 33.2382 185.787 31.8297 185.249 30.4082C183.616 25.9405 181.123 21.8366 177.909 18.3294C176.905 17.1931 175.501 16.4868 173.99 16.3567C172.479 16.2266 170.975 16.6826 169.791 17.6303C167.573 19.5029 166.564 22.1921 165.687 24.8059C165.084 26.9167 164.731 29.0909 164.634 31.2839C164.115 36.5307 164.739 41.8277 166.464 46.81ZM186.603 82.8427C187.281 83.077 187.977 83.2515 188.685 83.3641C190.611 83.487 191.607 82.4302 191.036 80.7174C189.458 75.9828 187.853 71.2538 186.089 66.5865C185.162 64.1337 184.059 64.118 182.204 66.3885C183.147 66.5836 184.023 66.7647 184.9 66.9458C184.532 67.4066 184.056 67.7701 183.515 68.0042C183.183 68.2906 182.889 68.6194 182.643 68.9823C183.027 69.146 183.427 69.2694 183.837 69.3507C184.367 69.3631 184.897 69.3355 185.422 69.2682C184.613 70.2281 184.012 70.9413 183.41 71.6545C184.044 71.9296 184.677 72.2047 185.423 72.5284C185.276 73.6344 181.876 75.1284 185.77 76.0472C185.441 76.618 185.158 77.1084 184.691 77.9199H187.461L187.564 78.3754C187.152 78.5533 186.768 78.79 186.423 79.0782C186.092 79.5193 185.806 79.9927 185.57 80.491C186.029 80.6474 186.483 80.8283 186.951 80.9527C187.359 81.061 187.783 81.1057 188.614 81.2505C188.218 81.4601 187.836 81.6926 187.467 81.9469C187.202 82.17 186.98 82.4461 186.603 82.8427Z" fill="#121212"/>
<path d="M186.063 39.9619C186.734 40.1969 187.502 40.244 187.615 40.5408C188.451 42.7346 189.157 44.9782 189.895 47.1771C188.571 48.0863 188.24 47.3175 187.972 46.4093C187.389 44.434 186.803 42.4598 186.063 39.9619Z" fill="#121212"/>
<path d="M190.95 54.3935C190.486 53.4303 190.051 52.6051 189.703 51.7445C189.668 51.6066 189.668 51.4623 189.702 51.3243C189.737 51.1864 189.804 51.0589 189.899 50.9533C190.024 50.8769 190.165 50.8299 190.311 50.8159C190.457 50.802 190.604 50.8213 190.741 50.8726C191.459 51.1958 191.688 53.3607 190.95 54.3935Z" fill="#121212"/>
</svg>
